<?xml version="1.0" encoding="utf-8"?>
<!-- Generator: Adobe Illustrator 24.0.1, SVG Export Plug-In . SVG Version: 6.00 Build 0)  -->
<svg version="1.1" id="Layer_1" xmlns="http://www.w3.org/2000/svg" xmlns:xlink="http://www.w3.org/1999/xlink" x="0px" y="0px"
	 viewBox="0 0 1280 769" style="enable-background:new 0 0 1280 769;" xml:space="preserve">
<style type="text/css">
	.st0{fill:#FFFFFF;}
	.st1{fill:url(#SVGID_1_);}
	.st2{fill:url(#SVGID_2_);}
	.st3{fill:url(#SVGID_3_);}
	.st4{fill:url(#SVGID_4_);}
</style>
<rect width="1280" height="769"/>
<g>
	<g>
		<g>
			<path class="st0" d="M366.8,491.97l28.72,36.48h-10.64l-27.83-35.48l-5.27,35.48h-8.95l9.64-67.79h8.95l-4.37,29.22l29.02-29.22
				h11.93L366.8,491.97z"/>
			<path class="st0" d="M454.16,528.45h-4.77l-33.6-49.5l-7.06,49.5h-8.45l9.64-67.79h4.47l33.89,49.9l7.06-49.9h8.45L454.16,528.45
				z"/>
			<path class="st0" d="M479.1,528.45h-9.44l9.44-67.79h9.44L479.1,528.45z"/>
			<path class="st0" d="M545.49,468.32c-6.16-0.1-13.92,0.4-20.87,2.68c-15.9,5.27-20.48,20.37-20.48,29.62
				c0,12.23,7.26,20.18,17,20.18c9.94,0,19.08-6.86,20.97-8.35l-1.29,10.93c-3.58,2.09-11.53,5.96-20.18,5.96
				c-13.12,0-26.14-9.14-26.14-28.62c0-4.18,0.6-26.44,22.86-36.28c6.36-2.88,14.31-5.07,29.92-4.67L545.49,468.32z"/>
			<path class="st0" d="M573.61,491.97l28.72,36.48H591.7l-27.83-35.48l-5.27,35.48h-8.95l9.64-67.79h8.95l-4.37,29.22l29.02-29.22
				h11.93L573.61,491.97z"/>
			<path class="st0" d="M607.6,511.05c5.47,3.98,13.52,6.96,19.18,6.96c5.86,0,9.74-2.98,9.74-7.45c0-11.23-24.95-12.52-24.95-30.32
				c0-11.73,10.14-20.47,23.85-20.47c6.56,0,13.52,1.89,19.38,5.37l-1.99,11.93c-4.37-3.18-11.63-5.97-16.8-5.97
				c-5.27,0-9.54,2.98-9.54,7.46c0,9.74,24.95,11.03,24.95,30.02c0,10.93-7.75,20.77-22.96,20.77c-9.84,0-17-2.49-23.06-6.46
				L607.6,511.05z"/>
			<path class="st0" d="M715.23,487.5l3.78-26.84h14.41l-9.54,67.79h-14.41l3.98-27.63h-34.59l-3.88,27.63h-14.41l9.54-67.79h14.41
				l-3.78,26.84H715.23z"/>
			<path class="st0" d="M733.71,528.45l33.2-68.68h15.31l11.93,68.68h-14.81l-2.09-14.81h-21.07l-6.56,14.81H733.71z M776.05,504
				l-3.58-30.02h-0.2L760.35,504H776.05z"/>
			<path class="st0" d="M860.23,523.98c-8.35,3.68-15.8,5.37-23.85,5.37c-19.68,0-33-12.52-33-31.01
				c0-22.76,18.09-38.66,44.23-38.66c5.96,0,11.63,0.89,18.39,2.59l-2.39,12.52c-5.17-1.59-10.44-2.49-16.4-2.49
				c-21.77,0-28.92,15.8-28.92,26.34c0,11.13,7.46,18.09,19.38,18.09c7.75,0,14.91-2.29,24.65-7.85L860.23,523.98z"/>
			<path class="st0" d="M891.43,489.78l28.63-29.12h17.09l-30.41,30.61l26.34,37.17h-16.7l-25.54-35.98l-5.07,35.98h-14.41
				l9.54-67.79h14.41l-4.07,28.92L891.43,489.78z"/>
		</g>
	</g>
	<g>
		<linearGradient id="SVGID_1_" gradientUnits="userSpaceOnUse" x1="485.3289" y1="376.6029" x2="742.9813" y2="305.5785">
			<stop  offset="0" style="stop-color:#04F9FF"/>
			<stop  offset="1" style="stop-color:#13009F"/>
		</linearGradient>
		<path class="st1" d="M753.78,300.89l-9.9,11.28c-22.51-15.03-48.23-13.25-79.54-5.84c-24.51,5.82-49.7,5.45-72.81-1.05
			c-10.82-3.03-18.5-3.45-26.52-1.45c-7,1.75-13.53,5.75-18.86,11.56c-5.87,6.42-12.18,11.2-18.2,13.81
			c-6.35,2.75-13.53,1.87-19.22-2.35c-5.61-4.15-8.5-10.65-7.72-17.39c0.55-4.77,2.68-11.55,9.79-16.79
			c7.16-5.26,21.52-10.43,49.34-5.2c52.09,15.09,84.86,16.36,100.15,3.89c6.45-5.26,9.48-12.76,8.77-21.71
			c-0.73-9-6.77-14.96-12.25-18.55c-0.73-6.43-6.18-11.44-12.82-11.44c-7.13,0-12.92,5.79-12.92,12.92
			c0,7.14,5.79,12.92,12.92,12.92c3.44,0,6.53-1.33,8.85-3.5c2.56,2.11,4.78,4.95,5.06,8.54c0.42,5.26-1.1,9.24-4.67,12.15
			c-6.81,5.55-27.57,12.14-90.23-6.03l-0.52-0.13c-31.95-6.07-49.34,0.53-58.3,7.13c-8.08,5.94-13.16,14.65-14.27,24.52
			c-1.23,10.75,3.31,21.1,12.16,27.65c8.95,6.63,20.29,7.98,30.34,3.62c7.58-3.29,14.97-8.85,22.01-16.53
			c3.84-4.18,8.44-7.05,13.32-8.26c6.14-1.52,11.77-1.16,20.79,1.37c24.94,7.02,52.05,7.41,78.42,1.17
			c30.17-7.14,54.36-8.71,74.36,6.86l4.15,3.24l8.92-10.15l29.25,28.83l-9.73,13.59c-10.96-4.03-40.92-12.86-69.32-1.68
			c-16.55,6.52-29.68,18.66-39.1,36.21c-6.75,0.41-12.12,6.03-12.12,12.89c0,7.14,5.79,12.92,12.92,12.92
			c7.14,0,12.92-5.77,12.92-12.92c0-3.31-1.24-6.35-3.3-8.63c8.11-14.57,19.07-24.65,32.72-30.04c30.41-12.01,64.66,3.02,65,3.16
			l4.18,1.89l20.5-28.65L753.78,300.89z M645.87,257.87c-0.59,0.22-1.23,0.34-1.9,0.34c-3.1,0-5.63-2.52-5.63-5.63
			c0-3.1,2.53-5.62,5.63-5.62c1.2,0,2.29,0.36,3.2,1.01c1.47,1.01,2.43,2.7,2.43,4.61c0,2.45-1.55,4.52-3.72,5.3
			C645.89,257.87,645.89,257.87,645.87,257.87z M671.89,407.02c0,3.12-2.52,5.63-5.63,5.63c-3.1,0-5.63-2.52-5.63-5.63
			c0-1.12,0.34-2.17,0.91-3.05c0.99-1.55,2.74-2.57,4.73-2.57c2.95,0,5.35,2.25,5.61,5.12
			C671.88,406.69,671.89,406.85,671.89,407.02z"/>
		<linearGradient id="SVGID_2_" gradientUnits="userSpaceOnUse" x1="488.2176" y1="387.0824" x2="745.87" y2="316.058">
			<stop  offset="0" style="stop-color:#04F9FF"/>
			<stop  offset="1" style="stop-color:#13009F"/>
		</linearGradient>
		<path class="st2" d="M589.88,330.04c-7.13,0-12.92,5.79-12.92,12.92c0,4.32,2.11,8.14,5.37,10.49c-3.3,6.6-11.27,14.6-30.34,17.67
			c-27.08,4.39-46.74,8.3-56.12,17.42c-0.41-0.04-0.81-0.06-1.22-0.06c-7.13,0-12.92,5.79-12.92,12.92
			c0,7.14,5.79,12.92,12.92,12.92c7.14,0,12.92-5.77,12.92-12.92c0-2.38-0.64-4.61-1.76-6.53c6.71-4.78,21.08-8.35,47.95-12.71
			c26.13-4.22,36.07-16.9,39.8-26.82c5.34-1.59,9.23-6.53,9.23-12.39C602.8,335.83,597.02,330.04,589.88,330.04z M494.65,407.04
			c-3.1,0-5.63-2.52-5.63-5.63c0-1.43,0.53-2.74,1.41-3.72c1.03-1.16,2.54-1.9,4.22-1.9c3.12,0,5.63,2.52,5.63,5.62
			c0,0.87-0.2,1.68-0.55,2.4C498.85,405.72,496.91,407.04,494.65,407.04z M589.88,348.6c-2.4,0-4.46-1.51-5.26-3.64v-0.01
			c-0.25-0.62-0.38-1.27-0.38-1.99c0-3.1,2.53-5.62,5.63-5.62c2.92,0,5.33,2.22,5.61,5.06c0.01,0.18,0.03,0.36,0.03,0.56
			C595.51,346.08,593,348.6,589.88,348.6z"/>
		<linearGradient id="SVGID_3_" gradientUnits="userSpaceOnUse" x1="498.1038" y1="422.9462" x2="755.7562" y2="351.9218">
			<stop  offset="0" style="stop-color:#04F9FF"/>
			<stop  offset="1" style="stop-color:#13009F"/>
		</linearGradient>
		<path class="st3" d="M583.74,394.16c-3.48-4.45-6.04-9.06-7.93-13.41c-3.93,1.69-8.23,2.88-10.7,3.5
			c1.9,4.57,4.45,9.41,7.84,14.18c-2.04,2.28-3.29,5.3-3.29,8.6c0,7.14,5.79,12.92,12.92,12.92c7.14,0,12.92-5.77,12.92-12.92
			C595.51,400.27,590.34,394.73,583.74,394.16z M582.59,412.66c-3.1,0-5.63-2.52-5.63-5.63c0-0.98,0.25-1.9,0.7-2.7
			c0.95-1.73,2.81-2.92,4.94-2.92c0.95,0,1.83,0.22,2.6,0.64c1.8,0.92,3.03,2.81,3.03,4.98
			C588.23,410.14,585.71,412.66,582.59,412.66z"/>
		<linearGradient id="SVGID_4_" gradientUnits="userSpaceOnUse" x1="507.361" y1="456.528" x2="765.0134" y2="385.5036">
			<stop  offset="0" style="stop-color:#04F9FF"/>
			<stop  offset="1" style="stop-color:#13009F"/>
		</linearGradient>
		<path class="st4" d="M764.4,388.48c-0.46,0-0.91,0.03-1.36,0.07c-5.97-6.19-16.57-13.94-35.15-20.57
			c-9.98,0.56-17.2,3.38-21.2,5.42c26.07,6.39,39.68,15.11,46.56,21.45v0.01c-1.13,1.92-1.78,4.15-1.78,6.53
			c0,7.14,5.79,12.92,12.92,12.92c7.14,0,12.92-5.77,12.92-12.92C777.32,394.27,771.55,388.48,764.4,388.48z M764.4,407.04
			c-3.1,0-5.63-2.52-5.63-5.63c0-0.07,0-0.15,0.01-0.22c0.11-3.01,2.59-5.4,5.62-5.4c2.5,0,4.61,1.62,5.35,3.86
			c0.18,0.56,0.28,1.15,0.28,1.76C770.04,404.52,767.52,407.04,764.4,407.04z"/>
	</g>
</g>
</svg>
